<svg xmlns="http://www.w3.org/2000/svg" viewBox="0 0 512 512" width="100" height="100">
  <!-- Stem and Leaves -->
  <path fill="#2C5F2D" d="M256 480c-6.6 0-12-5.4-12-12V288h-56c-6.6 0-12-5.4-12-12s5.4-12 12-12h56v-67.5c-15.6-8.9-26-25.6-26-44.5 0-28.7 23.3-52 52-52s52 23.3 52 52c0 18.9-10.4 35.6-26 44.5V264h56c6.6 0 12 5.4 12 12s-5.4 12-12 12h-56v180c0 6.6-5.4 12-12 12z"/>
  <!-- Rose Blossom -->
  <path fill="#E3242B" d="M256 32c-44.2 0-80 35.8-80 80 0 32.5 19 60.5 46.5 73.8-3.4 5.3-5.5 11.6-5.5 18.2 0 18.8 15.2 34 34 34s34-15.2 34-34c0-6.6-2.1-12.9-5.5-18.2C317 172.5 336 144.5 336 112c0-44.2-35.8-80-80-80zm0 136c-22.1 0-40-17.9-40-40s17.9-40 40-40 40 17.9 40 40-17.9 40-40 40z"/>
</svg>
